<mxfile host="app.diagrams.net" modified="2024-06-01T09:52:11.422Z" agent="Mozilla/5.0 (Windows NT 10.0; Win64; x64) AppleWebKit/537.36 (KHTML, like Gecko) Chrome/125.0.0.0 Safari/537.36 Edg/125.0.0.0" etag="arzEakdAhQYdqgh8DF_3" version="24.4.13" type="device" pages="2">
  <diagram name="Page-1" id="GdTkisX0Xdhr9QMNjLo4">
    <mxGraphModel dx="1050" dy="611" grid="0" gridSize="10" guides="1" tooltips="1" connect="1" arrows="1" fold="1" page="0" pageScale="1" pageWidth="850" pageHeight="1100" math="0" shadow="0">
      <root>
        <mxCell id="0" />
        <mxCell id="1" parent="0" />
        <mxCell id="nTBVWtr08780xWGyslhT-4" value="(side)ExtractControl(type)" style="edgeStyle=orthogonalEdgeStyle;rounded=0;orthogonalLoop=1;jettySize=auto;html=1;exitX=0;exitY=0.5;exitDx=0;exitDy=0;entryX=0.5;entryY=0;entryDx=0;entryDy=0;fontSize=12;startSize=8;endSize=8;" parent="1" source="nTBVWtr08780xWGyslhT-1" target="nTBVWtr08780xWGyslhT-2" edge="1">
          <mxGeometry relative="1" as="geometry" />
        </mxCell>
        <mxCell id="nTBVWtr08780xWGyslhT-5" value="(side)ExtractData(type)" style="edgeStyle=orthogonalEdgeStyle;rounded=0;orthogonalLoop=1;jettySize=auto;html=1;exitX=1;exitY=0.5;exitDx=0;exitDy=0;entryX=0.5;entryY=0;entryDx=0;entryDy=0;fontSize=12;startSize=8;endSize=8;" parent="1" source="nTBVWtr08780xWGyslhT-1" target="nTBVWtr08780xWGyslhT-3" edge="1">
          <mxGeometry relative="1" as="geometry" />
        </mxCell>
        <mxCell id="nTBVWtr08780xWGyslhT-1" value="(side)(type)" style="rounded=0;whiteSpace=wrap;html=1;" parent="1" vertex="1">
          <mxGeometry x="196" y="153" width="120" height="60" as="geometry" />
        </mxCell>
        <mxCell id="nTBVWtr08780xWGyslhT-6" style="edgeStyle=orthogonalEdgeStyle;rounded=0;orthogonalLoop=1;jettySize=auto;html=1;exitX=1;exitY=0.5;exitDx=0;exitDy=0;entryX=0.5;entryY=1;entryDx=0;entryDy=0;fontSize=12;startSize=8;endSize=8;" parent="1" source="nTBVWtr08780xWGyslhT-2" target="nTBVWtr08780xWGyslhT-1" edge="1">
          <mxGeometry relative="1" as="geometry" />
        </mxCell>
        <mxCell id="nTBVWtr08780xWGyslhT-2" value="(side)Control(type)" style="rounded=0;whiteSpace=wrap;html=1;" parent="1" vertex="1">
          <mxGeometry x="36" y="306" width="120" height="60" as="geometry" />
        </mxCell>
        <mxCell id="nTBVWtr08780xWGyslhT-7" value="(side)Combine(type)s" style="edgeStyle=orthogonalEdgeStyle;rounded=0;orthogonalLoop=1;jettySize=auto;html=1;exitX=0;exitY=0.5;exitDx=0;exitDy=0;entryX=0.5;entryY=1;entryDx=0;entryDy=0;fontSize=12;startSize=8;endSize=8;" parent="1" source="nTBVWtr08780xWGyslhT-3" target="nTBVWtr08780xWGyslhT-1" edge="1">
          <mxGeometry relative="1" as="geometry" />
        </mxCell>
        <mxCell id="nTBVWtr08780xWGyslhT-3" value="Data(type)" style="rounded=0;whiteSpace=wrap;html=1;" parent="1" vertex="1">
          <mxGeometry x="355" y="306" width="120" height="60" as="geometry" />
        </mxCell>
        <mxCell id="C_aW3PrGLO-HXSq3eOX_-1" value="leftExtractControlState" style="edgeStyle=orthogonalEdgeStyle;rounded=0;orthogonalLoop=1;jettySize=auto;html=1;exitX=0;exitY=0.5;exitDx=0;exitDy=0;entryX=0.5;entryY=0;entryDx=0;entryDy=0;fontSize=12;startSize=8;endSize=8;" edge="1" source="C_aW3PrGLO-HXSq3eOX_-3" target="C_aW3PrGLO-HXSq3eOX_-5" parent="1">
          <mxGeometry relative="1" as="geometry" />
        </mxCell>
        <mxCell id="C_aW3PrGLO-HXSq3eOX_-2" value="leftExtractDataState" style="edgeStyle=orthogonalEdgeStyle;rounded=0;orthogonalLoop=1;jettySize=auto;html=1;exitX=1;exitY=0.5;exitDx=0;exitDy=0;entryX=0.5;entryY=0;entryDx=0;entryDy=0;fontSize=12;startSize=8;endSize=8;" edge="1" source="C_aW3PrGLO-HXSq3eOX_-3" target="C_aW3PrGLO-HXSq3eOX_-7" parent="1">
          <mxGeometry relative="1" as="geometry" />
        </mxCell>
        <mxCell id="C_aW3PrGLO-HXSq3eOX_-3" value="XstsState&amp;lt;PredState&amp;gt;" style="rounded=0;whiteSpace=wrap;html=1;" vertex="1" parent="1">
          <mxGeometry x="196.5" y="415" width="120" height="60" as="geometry" />
        </mxCell>
        <mxCell id="C_aW3PrGLO-HXSq3eOX_-4" style="edgeStyle=orthogonalEdgeStyle;rounded=0;orthogonalLoop=1;jettySize=auto;html=1;exitX=1;exitY=0.5;exitDx=0;exitDy=0;entryX=0.5;entryY=1;entryDx=0;entryDy=0;fontSize=12;startSize=8;endSize=8;" edge="1" source="C_aW3PrGLO-HXSq3eOX_-5" target="C_aW3PrGLO-HXSq3eOX_-3" parent="1">
          <mxGeometry relative="1" as="geometry" />
        </mxCell>
        <mxCell id="C_aW3PrGLO-HXSq3eOX_-5" value="XstsState&amp;lt;UnitState&amp;gt;" style="rounded=0;whiteSpace=wrap;html=1;" vertex="1" parent="1">
          <mxGeometry x="36.5" y="568" width="120" height="60" as="geometry" />
        </mxCell>
        <mxCell id="C_aW3PrGLO-HXSq3eOX_-6" value="leftCombineStates" style="edgeStyle=orthogonalEdgeStyle;rounded=0;orthogonalLoop=1;jettySize=auto;html=1;exitX=0;exitY=0.5;exitDx=0;exitDy=0;entryX=0.5;entryY=1;entryDx=0;entryDy=0;fontSize=12;startSize=8;endSize=8;" edge="1" source="C_aW3PrGLO-HXSq3eOX_-7" target="C_aW3PrGLO-HXSq3eOX_-3" parent="1">
          <mxGeometry relative="1" as="geometry" />
        </mxCell>
        <mxCell id="C_aW3PrGLO-HXSq3eOX_-7" value="PredState" style="rounded=0;whiteSpace=wrap;html=1;" vertex="1" parent="1">
          <mxGeometry x="355.5" y="568" width="120" height="60" as="geometry" />
        </mxCell>
      </root>
    </mxGraphModel>
  </diagram>
  <diagram id="k-eiaRP6-8fJVZxhss_4" name="Page-2">
    <mxGraphModel dx="1050" dy="611" grid="1" gridSize="10" guides="1" tooltips="1" connect="1" arrows="1" fold="1" page="1" pageScale="1" pageWidth="850" pageHeight="1100" math="0" shadow="0">
      <root>
        <mxCell id="0" />
        <mxCell id="1" parent="0" />
        <mxCell id="7nBMWXx3L3xhGDYV_fWb-1" value="MultiState" style="swimlane;whiteSpace=wrap;html=1;" parent="1" vertex="1">
          <mxGeometry x="40" y="160" width="200" height="340" as="geometry" />
        </mxCell>
        <mxCell id="7nBMWXx3L3xhGDYV_fWb-2" value="LControlState" style="rounded=0;whiteSpace=wrap;html=1;" parent="7nBMWXx3L3xhGDYV_fWb-1" vertex="1">
          <mxGeometry x="40" y="60" width="120" height="60" as="geometry" />
        </mxCell>
        <mxCell id="7nBMWXx3L3xhGDYV_fWb-3" value="DataState" style="rounded=0;whiteSpace=wrap;html=1;" parent="7nBMWXx3L3xhGDYV_fWb-1" vertex="1">
          <mxGeometry x="40" y="150" width="120" height="60" as="geometry" />
        </mxCell>
        <mxCell id="7nBMWXx3L3xhGDYV_fWb-4" value="RControlState" style="rounded=0;whiteSpace=wrap;html=1;" parent="7nBMWXx3L3xhGDYV_fWb-1" vertex="1">
          <mxGeometry x="40" y="240" width="120" height="60" as="geometry" />
        </mxCell>
        <mxCell id="7nBMWXx3L3xhGDYV_fWb-13" value="leftTransFunc" style="edgeStyle=orthogonalEdgeStyle;rounded=0;orthogonalLoop=1;jettySize=auto;html=1;exitX=1;exitY=0.5;exitDx=0;exitDy=0;entryX=0;entryY=0.5;entryDx=0;entryDy=0;" parent="1" source="7nBMWXx3L3xhGDYV_fWb-5" target="7nBMWXx3L3xhGDYV_fWb-12" edge="1">
          <mxGeometry relative="1" as="geometry" />
        </mxCell>
        <mxCell id="7nBMWXx3L3xhGDYV_fWb-5" value="LState" style="rounded=0;whiteSpace=wrap;html=1;" parent="1" vertex="1">
          <mxGeometry x="290" y="270" width="120" height="60" as="geometry" />
        </mxCell>
        <mxCell id="7nBMWXx3L3xhGDYV_fWb-6" style="edgeStyle=orthogonalEdgeStyle;rounded=0;orthogonalLoop=1;jettySize=auto;html=1;exitX=1;exitY=0.5;exitDx=0;exitDy=0;entryX=0;entryY=0.5;entryDx=0;entryDy=0;" parent="1" source="7nBMWXx3L3xhGDYV_fWb-2" target="7nBMWXx3L3xhGDYV_fWb-5" edge="1">
          <mxGeometry relative="1" as="geometry" />
        </mxCell>
        <mxCell id="7nBMWXx3L3xhGDYV_fWb-7" style="edgeStyle=orthogonalEdgeStyle;rounded=0;orthogonalLoop=1;jettySize=auto;html=1;exitX=1;exitY=0.5;exitDx=0;exitDy=0;entryX=0;entryY=0.5;entryDx=0;entryDy=0;" parent="1" source="7nBMWXx3L3xhGDYV_fWb-3" target="7nBMWXx3L3xhGDYV_fWb-5" edge="1">
          <mxGeometry relative="1" as="geometry" />
        </mxCell>
        <mxCell id="7nBMWXx3L3xhGDYV_fWb-8" value="MultiState" style="swimlane;whiteSpace=wrap;html=1;" parent="1" vertex="1">
          <mxGeometry x="700" y="160" width="200" height="340" as="geometry" />
        </mxCell>
        <mxCell id="7nBMWXx3L3xhGDYV_fWb-9" value="LControlState" style="rounded=0;whiteSpace=wrap;html=1;" parent="7nBMWXx3L3xhGDYV_fWb-8" vertex="1">
          <mxGeometry x="40" y="60" width="120" height="60" as="geometry" />
        </mxCell>
        <mxCell id="7nBMWXx3L3xhGDYV_fWb-10" value="DataState" style="rounded=0;whiteSpace=wrap;html=1;" parent="7nBMWXx3L3xhGDYV_fWb-8" vertex="1">
          <mxGeometry x="40" y="150" width="120" height="60" as="geometry" />
        </mxCell>
        <mxCell id="7nBMWXx3L3xhGDYV_fWb-11" value="RControlState" style="rounded=0;whiteSpace=wrap;html=1;" parent="7nBMWXx3L3xhGDYV_fWb-8" vertex="1">
          <mxGeometry x="40" y="240" width="120" height="60" as="geometry" />
        </mxCell>
        <mxCell id="7nBMWXx3L3xhGDYV_fWb-14" style="edgeStyle=orthogonalEdgeStyle;rounded=0;orthogonalLoop=1;jettySize=auto;html=1;exitX=1;exitY=0.5;exitDx=0;exitDy=0;entryX=0;entryY=0.5;entryDx=0;entryDy=0;" parent="1" source="7nBMWXx3L3xhGDYV_fWb-12" target="7nBMWXx3L3xhGDYV_fWb-9" edge="1">
          <mxGeometry relative="1" as="geometry" />
        </mxCell>
        <mxCell id="7nBMWXx3L3xhGDYV_fWb-15" style="edgeStyle=orthogonalEdgeStyle;rounded=0;orthogonalLoop=1;jettySize=auto;html=1;exitX=1;exitY=0.5;exitDx=0;exitDy=0;entryX=0;entryY=0.5;entryDx=0;entryDy=0;" parent="1" source="7nBMWXx3L3xhGDYV_fWb-12" target="7nBMWXx3L3xhGDYV_fWb-10" edge="1">
          <mxGeometry relative="1" as="geometry" />
        </mxCell>
        <mxCell id="7nBMWXx3L3xhGDYV_fWb-12" value="LState" style="rounded=0;whiteSpace=wrap;html=1;" parent="1" vertex="1">
          <mxGeometry x="520" y="270" width="120" height="60" as="geometry" />
        </mxCell>
        <mxCell id="7nBMWXx3L3xhGDYV_fWb-16" style="edgeStyle=orthogonalEdgeStyle;rounded=0;orthogonalLoop=1;jettySize=auto;html=1;exitX=1;exitY=0.5;exitDx=0;exitDy=0;entryX=0;entryY=0.5;entryDx=0;entryDy=0;" parent="1" source="7nBMWXx3L3xhGDYV_fWb-4" target="7nBMWXx3L3xhGDYV_fWb-11" edge="1">
          <mxGeometry relative="1" as="geometry" />
        </mxCell>
        <mxCell id="eaqOvhduFurio9QyHN3i-17" value="MultiState" style="swimlane;whiteSpace=wrap;html=1;" vertex="1" parent="1">
          <mxGeometry x="40" y="600" width="160" height="340" as="geometry" />
        </mxCell>
        <mxCell id="eaqOvhduFurio9QyHN3i-18" value="CfaState&amp;lt;UnitState&amp;gt;" style="rounded=0;whiteSpace=wrap;html=1;" vertex="1" parent="eaqOvhduFurio9QyHN3i-17">
          <mxGeometry x="20" y="60" width="120" height="60" as="geometry" />
        </mxCell>
        <mxCell id="eaqOvhduFurio9QyHN3i-19" value="ExplState" style="rounded=0;whiteSpace=wrap;html=1;" vertex="1" parent="eaqOvhduFurio9QyHN3i-17">
          <mxGeometry x="20" y="150" width="120" height="60" as="geometry" />
        </mxCell>
        <mxCell id="eaqOvhduFurio9QyHN3i-20" value="XstsState&amp;lt;UnitState&amp;gt;" style="rounded=0;whiteSpace=wrap;html=1;" vertex="1" parent="eaqOvhduFurio9QyHN3i-17">
          <mxGeometry x="20" y="240" width="120" height="60" as="geometry" />
        </mxCell>
        <mxCell id="eaqOvhduFurio9QyHN3i-25" value="MultiState" style="swimlane;whiteSpace=wrap;html=1;" vertex="1" parent="1">
          <mxGeometry x="740" y="600" width="160" height="340" as="geometry" />
        </mxCell>
        <mxCell id="eaqOvhduFurio9QyHN3i-26" value="CfaState&amp;lt;UnitState&amp;gt;" style="rounded=0;whiteSpace=wrap;html=1;" vertex="1" parent="eaqOvhduFurio9QyHN3i-25">
          <mxGeometry x="20" y="60" width="120" height="60" as="geometry" />
        </mxCell>
        <mxCell id="eaqOvhduFurio9QyHN3i-27" value="ExplState" style="rounded=0;whiteSpace=wrap;html=1;" vertex="1" parent="eaqOvhduFurio9QyHN3i-25">
          <mxGeometry x="20" y="150" width="120" height="60" as="geometry" />
        </mxCell>
        <mxCell id="eaqOvhduFurio9QyHN3i-28" value="XstsState&amp;lt;UnitState&amp;gt;" style="rounded=0;whiteSpace=wrap;html=1;" vertex="1" parent="eaqOvhduFurio9QyHN3i-25">
          <mxGeometry x="20" y="240" width="120" height="60" as="geometry" />
        </mxCell>
        <mxCell id="eaqOvhduFurio9QyHN3i-34" value="MultiTransFunc" style="swimlane;whiteSpace=wrap;html=1;" vertex="1" parent="1">
          <mxGeometry x="370" y="690" width="200" height="200" as="geometry">
            <mxRectangle x="390" y="700" width="120" height="30" as="alternateBounds" />
          </mxGeometry>
        </mxCell>
        <mxCell id="eaqOvhduFurio9QyHN3i-35" value="CfaTransFunc&lt;div&gt;&amp;lt;ExplState&amp;gt;&lt;/div&gt;" style="rounded=0;whiteSpace=wrap;html=1;" vertex="1" parent="eaqOvhduFurio9QyHN3i-34">
          <mxGeometry x="40" y="40" width="120" height="60" as="geometry" />
        </mxCell>
        <mxCell id="eaqOvhduFurio9QyHN3i-36" value="XstsTransFunc&lt;div&gt;&amp;lt;ExplState&amp;gt;&lt;/div&gt;" style="rounded=0;whiteSpace=wrap;html=1;" vertex="1" parent="eaqOvhduFurio9QyHN3i-34">
          <mxGeometry x="40" y="120" width="120" height="60" as="geometry" />
        </mxCell>
        <mxCell id="eaqOvhduFurio9QyHN3i-37" style="edgeStyle=orthogonalEdgeStyle;rounded=0;orthogonalLoop=1;jettySize=auto;html=1;exitX=1;exitY=0.25;exitDx=0;exitDy=0;entryX=0;entryY=0.25;entryDx=0;entryDy=0;" edge="1" parent="1" source="eaqOvhduFurio9QyHN3i-18" target="eaqOvhduFurio9QyHN3i-26">
          <mxGeometry relative="1" as="geometry" />
        </mxCell>
        <mxCell id="eaqOvhduFurio9QyHN3i-42" style="edgeStyle=orthogonalEdgeStyle;rounded=0;orthogonalLoop=1;jettySize=auto;html=1;exitX=1;exitY=0.5;exitDx=0;exitDy=0;entryX=0;entryY=0.5;entryDx=0;entryDy=0;" edge="1" parent="1" source="eaqOvhduFurio9QyHN3i-38" target="eaqOvhduFurio9QyHN3i-36">
          <mxGeometry relative="1" as="geometry" />
        </mxCell>
        <mxCell id="eaqOvhduFurio9QyHN3i-38" value="XstsState&lt;div&gt;&amp;lt;ExplState&amp;gt;&lt;/div&gt;" style="rounded=0;whiteSpace=wrap;html=1;" vertex="1" parent="1">
          <mxGeometry x="230" y="810" width="110" height="60" as="geometry" />
        </mxCell>
        <mxCell id="eaqOvhduFurio9QyHN3i-44" style="edgeStyle=orthogonalEdgeStyle;rounded=0;orthogonalLoop=1;jettySize=auto;html=1;exitX=1;exitY=0.25;exitDx=0;exitDy=0;entryX=0;entryY=0.5;entryDx=0;entryDy=0;" edge="1" parent="1" source="eaqOvhduFurio9QyHN3i-39" target="eaqOvhduFurio9QyHN3i-27">
          <mxGeometry relative="1" as="geometry" />
        </mxCell>
        <mxCell id="eaqOvhduFurio9QyHN3i-45" style="edgeStyle=orthogonalEdgeStyle;rounded=0;orthogonalLoop=1;jettySize=auto;html=1;exitX=1;exitY=0.75;exitDx=0;exitDy=0;entryX=0;entryY=0.5;entryDx=0;entryDy=0;" edge="1" parent="1" source="eaqOvhduFurio9QyHN3i-39" target="eaqOvhduFurio9QyHN3i-28">
          <mxGeometry relative="1" as="geometry" />
        </mxCell>
        <mxCell id="eaqOvhduFurio9QyHN3i-39" value="XstsState&lt;div&gt;&amp;lt;ExplState&amp;gt;&lt;/div&gt;" style="rounded=0;whiteSpace=wrap;html=1;" vertex="1" parent="1">
          <mxGeometry x="600" y="810" width="110" height="60" as="geometry" />
        </mxCell>
        <mxCell id="eaqOvhduFurio9QyHN3i-40" style="edgeStyle=orthogonalEdgeStyle;rounded=0;orthogonalLoop=1;jettySize=auto;html=1;exitX=1;exitY=0.5;exitDx=0;exitDy=0;entryX=0;entryY=0.25;entryDx=0;entryDy=0;" edge="1" parent="1" source="eaqOvhduFurio9QyHN3i-19" target="eaqOvhduFurio9QyHN3i-38">
          <mxGeometry relative="1" as="geometry" />
        </mxCell>
        <mxCell id="eaqOvhduFurio9QyHN3i-41" style="edgeStyle=orthogonalEdgeStyle;rounded=0;orthogonalLoop=1;jettySize=auto;html=1;exitX=1;exitY=0.5;exitDx=0;exitDy=0;entryX=0;entryY=0.75;entryDx=0;entryDy=0;" edge="1" parent="1" source="eaqOvhduFurio9QyHN3i-20" target="eaqOvhduFurio9QyHN3i-38">
          <mxGeometry relative="1" as="geometry" />
        </mxCell>
        <mxCell id="eaqOvhduFurio9QyHN3i-43" style="edgeStyle=orthogonalEdgeStyle;rounded=0;orthogonalLoop=1;jettySize=auto;html=1;exitX=1;exitY=0.5;exitDx=0;exitDy=0;" edge="1" parent="1" source="eaqOvhduFurio9QyHN3i-36" target="eaqOvhduFurio9QyHN3i-39">
          <mxGeometry relative="1" as="geometry" />
        </mxCell>
      </root>
    </mxGraphModel>
  </diagram>
</mxfile>
